<svg xmlns="http://www.w3.org/2000/svg" viewBox="0 0 589.93 118.79"><defs><style>.a,.c{fill:#c4d600;}.b{fill:#5b6770;}.c{font-size:9.13px;font-family:Avenir-Black, Avenir Black;}</style></defs><title>mms</title><path class="a" d="M47.51,88.37l24-23.83-24-23.84Zm7.06-30.72,7,7-7,6.87Z" transform="translate(-23.73 -12.56)"/><path class="a" d="M102.42,12.56l-7.1,7-19.15,19L57,19.59l-7.09-7H23.73V116.51h26.2l7.1-7.05,19.14-19,19.14,19,7.11,7.05h26.2V12.56Zm19,13.5v79.2a4.19,4.19,0,0,1-4.19,4.19H105.1L81.16,85.5l17-17v-10l-51,51H35a4.2,4.2,0,0,1-4.2-4.19V23.8a4.2,4.2,0,0,1,4.2-4.2H46.17v0H47L76.18,48.57l29.2-28.94h.8v0h11.09a4.19,4.19,0,0,1,4.19,4.2Z" transform="translate(-23.73 -12.56)"/><path class="b" d="M265.11,26.91V18.16h7.67v8.75h8.44v4.32l-8.44,3.3v12c0,3,.89,4.89,4.29,4.89a8.16,8.16,0,0,0,4.15-.94v6.36a16.49,16.49,0,0,1-6.07,1c-8.13,0-10-3.59-10-10.7V26.91Z" transform="translate(-23.73 -12.56)"/><path class="b" d="M245.37,26.91V18.16H253v8.75h8.44v4.32L253,34.53v12c0,3,.9,4.89,4.28,4.89a8.1,8.1,0,0,0,4.16-.94v6.36a16.42,16.42,0,0,1-6.07,1c-8.13,0-10-3.59-10-10.7V26.91Z" transform="translate(-23.73 -12.56)"/><path class="b" d="M233.43,43.58h-1.6c-4.22,0-11.52.32-11.52,4.65,0,2.77,2.88,4,5.38,4,5.25,0,7.74-2.7,7.74-6.91Zm.44,9.37h-.19c-2.17,3.4-5.75,4.91-9.85,4.91-5.7,0-11.19-3.08-11.19-9.06,0-9.82,11.64-10.5,19.31-10.5h1.91v-.83c0-3.71-2.93-5.66-7-5.66A12.17,12.17,0,0,0,218.66,35l-4-4c3.4-3.39,8.18-4.84,13-4.84,13.11,0,13.11,9.31,13.11,13.58V57.1h-6.91Z" transform="translate(-23.73 -12.56)"/><path class="b" d="M293.52,31.12h.13c1.21-2.52,4.28-5,9-5,8.26,0,11.19,5.73,11.19,11.89V57.1h-7.68V41.81c0-3.33-.25-8.86-5.62-8.86-5.07,0-7,3.64-7,7.66V57.1h-7.67V12.56h7.67Z" transform="translate(-23.73 -12.56)"/><path class="b" d="M340.66,39c-.07-4.4-3-7.17-7.8-7.17-4.53,0-7.34,2.83-7.92,7.17Zm-15.72,5.67a7.91,7.91,0,0,0,8.25,7.17,10.18,10.18,0,0,0,8.25-4.09l5.51,4.09a16.09,16.09,0,0,1-13,6c-9.27,0-16.69-6.35-16.69-15.85S324.69,26.16,334,26.16c8.56,0,14.4,5.9,14.4,16.41v2.08Z" transform="translate(-23.73 -12.56)"/><polygon class="b" points="324.3 14.35 332.62 14.35 339.27 35.48 339.39 35.48 345.61 14.35 353.91 14.35 360.56 35.48 360.69 35.48 367.09 14.35 374.83 14.35 364.4 44.54 356.8 44.54 349.5 23.91 349.37 23.91 342.92 44.54 334.99 44.54 324.3 14.35"/><path class="b" d="M417,35.27a7,7,0,0,0-6-3.08c-2.05,0-4.48.94-4.48,3.2,0,5.41,16.57,1,16.57,12.77,0,7.17-7,9.69-13.25,9.69-4.72,0-8.82-1.19-12-4.65L403,48.48c2,2.14,4,3.71,7.3,3.71,2.23,0,5.11-1.06,5.11-3.46,0-6.23-16.56-1.32-16.56-12.83,0-6.74,6.14-9.75,12.34-9.75,4.1,0,8.45,1.26,10.93,4.59Z" transform="translate(-23.73 -12.56)"/><polygon class="b" points="172.42 0 160.2 31.21 148.12 0 135.84 0 135.84 44.54 143.51 44.54 143.52 10.23 157.39 44.54 163.02 44.54 176.9 10.23 176.9 44.54 184.58 44.54 184.58 0 172.42 0"/><path class="b" d="M232.72,103.17h-1.57c-4.17,0-11.33.3-11.33,4.57,0,2.74,2.83,3.92,5.29,3.92,5.16,0,7.61-2.67,7.61-6.82Zm.45,9.22H233c-2.14,3.36-5.67,4.84-9.7,4.84-5.59,0-11-3-11-8.93,0-9.66,11.46-10.35,19-10.35h1.9v-.8c0-3.66-2.9-5.58-6.94-5.58a12,12,0,0,0-8.05,3.11l-4-3.91c3.35-3.35,8.07-4.77,12.85-4.77C240,86,240,95.17,240,99.39v17.1h-6.79Z" transform="translate(-23.73 -12.56)"/><path class="b" d="M245.57,86.75h7.55v4.7h.13a9.72,9.72,0,0,1,11.64-5v7.18a15.2,15.2,0,0,0-3.65-.56c-7.12,0-8.12,5.88-8.12,7.5v15.93h-7.55Z" transform="translate(-23.73 -12.56)"/><polygon class="b" points="243.82 59.39 251.37 59.39 251.37 86.51 263.02 74.19 272.72 74.19 259.74 87.7 273.54 103.93 263.53 103.93 251.5 88.75 251.37 88.75 251.37 103.93 243.82 103.93 243.82 59.39"/><path class="b" d="M300.23,86.75h7.55v29.73h-7.55Zm3.71-14.56a4.47,4.47,0,1,1-4.79,4.46,4.62,4.62,0,0,1,4.79-4.46" transform="translate(-23.73 -12.56)"/><path class="b" d="M314,86.75h7.17v4.76h.13c1.39-3,4.22-5.52,9.26-5.52,8.12,0,11,5.64,11,11.72v18.77H334V101.43c0-3.29-.24-8.73-5.53-8.73-5,0-6.93,3.59-6.93,7.55v16.24H314Z" transform="translate(-23.73 -12.56)"/><path class="b" d="M352.35,101.55a8.66,8.66,0,0,0,8.89,8.62c5.6,0,9-3.77,9-8.73,0-5.14-3.47-8.73-8.94-8.73-5.29,0-9,3.59-9,8.85m25.07-14.79v27.07c0,10.72-5.28,17.53-17.05,17.53-5.62,0-10.71-1.18-15-4.9l4.54-6.06a14.65,14.65,0,0,0,10.39,4.28c7.3,0,9.57-4.09,9.57-10v-2.17h-.13c-2.21,2.92-6.1,4.34-9.88,4.34-9.08,0-15.06-6.81-15.06-15.24,0-8.8,5.61-15.62,14.93-15.62,4.22,0,8.19,1.61,10.39,5.21h.13V86.75Z" transform="translate(-23.73 -12.56)"/><polygon class="b" points="172.42 59.39 160.2 90.59 148.12 59.39 135.84 59.39 135.84 103.94 143.51 103.94 143.52 69.62 157.39 103.94 163.02 103.94 176.9 69.62 176.9 103.94 184.58 103.94 184.58 59.39 172.42 59.39"/><path class="b" d="M419.11,82.27a9.19,9.19,0,0,0-7.63-3.45c-3.58,0-7.14,1.6-7.14,5.6,0,8.74,20.68,3.76,20.68,19.27,0,9.36-7.38,13.91-15.95,13.91-5.41,0-10.71-1.66-14.27-5.91l5.85-5.66a10.27,10.27,0,0,0,8.62,4.55c3.57,0,7.64-2,7.64-6,0-9.54-20.69-4.06-20.69-19.64,0-9,8-13.17,16.07-13.17a17.9,17.9,0,0,1,12.5,4.5Z" transform="translate(-23.73 -12.56)"/><path class="b" d="M425,86.94h8.12l8.24,20.5h.13l7.38-20.5h7.7l-14,35.89c-2.15,5.54-4.73,8.43-11.26,8.43a21.84,21.84,0,0,1-5.67-.74l.92-6.65a10.94,10.94,0,0,0,3.76.74c3.63,0,4.62-1.29,5.85-4.37l1.41-3.51Z" transform="translate(-23.73 -12.56)"/><path class="b" d="M473.37,95.13a6.71,6.71,0,0,0-5.79-3c-2,0-4.3.92-4.3,3.14,0,5.29,15.94,1,15.94,12.49,0,7-6.71,9.49-12.74,9.49-4.55,0-8.5-1.17-11.51-4.56l4.92-4.62c1.91,2.09,3.88,3.63,7,3.63,2.16,0,4.92-1,4.92-3.38,0-6.1-15.93-1.3-15.93-12.56,0-6.59,5.91-9.54,11.87-9.54,3.94,0,8.12,1.23,10.53,4.49Z" transform="translate(-23.73 -12.56)"/><path class="b" d="M508,104.31a7.66,7.66,0,0,0,7.94,7,9.71,9.71,0,0,0,7.94-4l5.29,4a15.39,15.39,0,0,1-12.49,5.91c-8.92,0-16.07-6.22-16.07-15.51s7.15-15.51,16.07-15.51c8.25,0,13.85,5.78,13.85,16.07v2Zm15.14-5.54c-.05-4.31-2.89-7-7.5-7-4.37,0-7.09,2.77-7.64,7Z" transform="translate(-23.73 -12.56)"/><path class="b" d="M533.79,86.94h7v4.61h.13c1.29-2.76,4.12-5.35,9-5.35,4.55,0,7.7,1.78,9.23,5.47,2.16-3.75,5.29-5.47,9.73-5.47,7.88,0,10.64,5.6,10.64,12.68v17.61H572.2V99.74c0-3.69-1.11-6.9-5.48-6.9-4.61,0-6.34,3.82-6.34,7.64v16H553V98.88c0-3.63-1.47-6-5-6-4.87,0-6.77,3.57-6.77,7.51v16.13h-7.39Z" transform="translate(-23.73 -12.56)"/><path class="b" d="M600.05,95.13a6.71,6.71,0,0,0-5.79-3c-2,0-4.31.92-4.31,3.14,0,5.29,15.94,1,15.94,12.49,0,7-6.71,9.49-12.75,9.49-4.55,0-8.5-1.17-11.51-4.56l4.93-4.62c1.91,2.09,3.87,3.63,7,3.63,2.16,0,4.93-1,4.93-3.38,0-6.1-15.95-1.3-15.95-12.56,0-6.59,5.91-9.54,11.88-9.54,3.94,0,8.13,1.23,10.53,4.49Z" transform="translate(-23.73 -12.56)"/><path class="b" d="M483.53,86.26V77.51h7.67v8.75h8.44v4.32l-8.45,3.29v12c0,3,.9,4.89,4.29,4.89a8.13,8.13,0,0,0,4.16-.94v6.36a16.52,16.52,0,0,1-6.08,1c-8.12,0-10-3.58-10-10.7V86.26Z" transform="translate(-23.73 -12.56)"/><path class="b" d="M606.81,82.66h-1.18V82h3.05v.62H607.5V85.9h-.69Z" transform="translate(-23.73 -12.56)"/><path class="b" d="M609.51,82h1l1,2.71,1-2.71h1V85.9H613V82.69h0l-1.17,3.21h-.48l-1.17-3.21h0V85.9h-.66Z" transform="translate(-23.73 -12.56)"/><text class="c" transform="translate(109.11 7.88)">®</text></svg>
